<svg xmlns="http://www.w3.org/2000/svg" viewBox="0 0 750 500"><g id="freepik--background-simple--inject-2"><path d="M677.62,208.45c-20.22-69.68-76.7-124.68-149.41-143.1-19.12-4.84-39.26-7.29-59-5.2C388.74,68.66,296.06,124.3,246.71,136S135,101,73.52,172.62,39.74,410.06,175.7,442.55s204.36-47.49,265-30,166.26,10,225.15-41.66C700.74,340.27,695.16,268.93,677.62,208.45Z" style="fill:#92E3A9"></path><path d="M677.62,208.45c-20.22-69.68-76.7-124.68-149.41-143.1-19.12-4.84-39.26-7.29-59-5.2C388.74,68.66,296.06,124.3,246.71,136S135,101,73.52,172.62,39.74,410.06,175.7,442.55s204.36-47.49,265-30,166.26,10,225.15-41.66C700.74,340.27,695.16,268.93,677.62,208.45Z" style="fill:#fff;opacity:0.8"></path></g><g id="freepik--floor-2--inject-2"><rect x="685.74" y="399.9" width="12.12" height="1" style="fill:#263238"></rect><rect x="465.79" y="399.9" width="210.43" height="1" style="fill:#263238"></rect></g><g id="freepik--floor-1--inject-2"><rect x="261.43" y="399.9" width="15.59" height="1" style="fill:#263238"></rect><rect x="44.94" y="399.9" width="206.96" height="1" style="fill:#263238"></rect></g><g id="freepik--Plant--inject-2"><path d="M78.35,337.14c2.16.94,7.42.82,7.43.82s-1.13-3.45-1.23-3.66c-1.16-2.41-4.81-6.41-7.79-6a3.55,3.55,0,0,0-2.85,4.45C74.41,334.81,76.52,336.34,78.35,337.14Z" style="fill:#263238"></path><path d="M80.17,352.39c2.24.33,6.94-1,7.31-1.15a62.29,62.29,0,0,0,2.85,7.89q1,2.25,2.06,4.47c-.43-.63-.81-1.19-.88-1.26-1.75-2-6.33-4.91-9.09-3.74a3.56,3.56,0,0,0-1.57,5c1,1.85,3.46,2.77,5.44,3.06s6-.79,7.1-1.09l.84,1.7c1.36,2.71,2.73,5.41,4,8.1.44.94.85,1.89,1.25,2.84-.38-.56-.7-1-.76-1.09-1.75-2-6.33-4.91-9.09-3.74a3.56,3.56,0,0,0-1.58,5.05c1,1.85,3.47,2.77,5.45,3.06s5.64-.69,6.91-1c.38,1,.78,2,1.11,2.94.21.67.46,1.3.63,2s.38,1.34.56,2c.31,1.28.63,2.6.9,3.86.2.87.36,1.71.54,2.55-.44-.95-1.32-2.79-1.41-2.93-1.43-2.27-5.52-5.82-8.43-5.07A3.54,3.54,0,0,0,92,390.57c.72,2,3,3.27,4.91,3.86,2.11.64,6.77.05,7.36,0,.27,1.4.53,2.76.76,4,.12.68.22,1.32.33,2h1.85c-.14-.74-.28-1.49-.44-2.29-.27-1.41-.6-2.92-1-4.47a37.6,37.6,0,0,0,4.11-1.92c1.53,1.66,5.47,3.6,6,3.85-.53,1.32-1.06,2.59-1.59,3.79-.15.36-.31.7-.46,1h2l.15-.35c.55-1.33,1.11-2.77,1.67-4.25.57.12,5.18,1.05,7.34.57,2-.44,4.31-1.55,5.19-3.48a3.54,3.54,0,0,0-2-4.9c-2.85-1-7.19,2.27-8.78,4.43-.09.12-1,1.62-1.49,2.57.23-.61.46-1.19.68-1.82.46-1.24.87-2.49,1.32-3.83.2-.65.4-1.32.6-2s.35-1.39.53-2.08c.39-1.63.7-3.29,1-5,1.09.39,5,1.74,7,1.6s4.5-.88,5.66-2.65a3.55,3.55,0,0,0-1.2-5.15c-2.66-1.38-7.44,1.16-9.34,3.05-.12.12-1.33,1.63-2,2.47.16-1,.32-2,.45-3.06.37-3,.65-6,1-9,.09-.92.19-1.84.28-2.76.39.14,4.95,1.84,7.2,1.69,2-.14,4.5-.88,5.66-2.65a3.56,3.56,0,0,0-1.2-5.15c-2.66-1.38-7.44,1.16-9.34,3.05-.15.14-1.88,2.32-2.3,2.89.21-2,.45-4,.76-6a61.87,61.87,0,0,1,1.73-7.93c.17.07,4.93,1.87,7.23,1.71,2-.15,4.5-.88,5.66-2.65a3.55,3.55,0,0,0-1.19-5.15c-2.67-1.38-7.45,1.16-9.35,3.05-.15.15-2,2.49-2.33,2.94,0-.15.08-.32.12-.47a46.12,46.12,0,0,1,3.14-7.49c.68-1.34,1.41-2.58,2.15-3.76.85.42,4.76,2.32,6.85,2.4s4.57-.37,5.91-2a3.54,3.54,0,0,0-.62-5.24c-2.5-1.66-7.53.33-9.62,2-.12.09-1.17,1.14-1.93,1.92.34-.53.68-1.09,1-1.59,1.26-1.89,2.52-3.54,3.66-5,.65-.82,1.25-1.55,1.83-2.23,1,0,5.3-.15,7.15-1s3.88-2.43,4.32-4.51a3.55,3.55,0,0,0-3-4.37c-3-.32-6.52,3.77-7.61,6.22-.1.21-1.19,3.68-1.14,3.68h.07c-.57.64-1.17,1.34-1.8,2.11-1.17,1.43-2.48,3.06-3.78,4.93a63.52,63.52,0,0,0-3.91,6.24,45.72,45.72,0,0,0-3.34,7.52l0,.1c0-.88,0-3.34,0-3.53-.34-2.66-2.57-7.59-5.52-8.14a3.56,3.56,0,0,0-4.09,3.34c-.18,2.12,1.35,4.23,2.85,5.56,1.68,1.51,6.35,3,6.72,3.08a63.38,63.38,0,0,0-2,8.15c-.29,1.6-.52,3.23-.74,4.86,0-.76,0-1.44,0-1.53-.35-2.66-2.57-7.59-5.52-8.14a3.55,3.55,0,0,0-4.1,3.34c-.17,2.11,1.36,4.22,2.85,5.56s5.47,2.67,6.52,3c-.07.63-.16,1.25-.23,1.88-.36,3-.71,6-1.14,8.95-.15,1-.33,2.05-.52,3.07,0-.68,0-1.24,0-1.33-.35-2.66-2.58-7.59-5.53-8.14a3.56,3.56,0,0,0-4.09,3.34c-.17,2.12,1.36,4.23,2.85,5.56s5.09,2.55,6.34,3c-.22,1-.44,2.07-.7,3.06-.19.68-.33,1.34-.56,2s-.43,1.33-.64,2c-.45,1.24-.9,2.52-1.37,3.71-.33.84-.65,1.63-1,2.43.16-1,.44-3,.44-3.23a13.66,13.66,0,0,0-1.85-6.7,4.14,4.14,0,0,0,0-.79,3.55,3.55,0,0,0-4.35-3c-2.9.77-4.73,5.86-4.87,8.54,0,.16.09,1.88.18,3-.15-.63-.28-1.24-.44-1.89-.31-1.28-.65-2.55-1-3.92l-.6-2c-.19-.67-.47-1.35-.7-2-.57-1.57-1.23-3.13-1.93-4.69,1.13-.27,5.1-1.28,6.69-2.5s3.27-3.22,3.26-5.33a3.56,3.56,0,0,0-3.84-3.64c-3,.32-5.57,5.08-6.11,7.7,0,.16-.21,2.09-.29,3.15-.42-.93-.84-1.87-1.31-2.8-1.33-2.68-2.76-5.36-4.18-8-.44-.82-.86-1.64-1.29-2.47.4-.09,5.15-1.19,6.94-2.56,1.59-1.22,3.27-3.21,3.25-5.33a3.54,3.54,0,0,0-3.83-3.63c-3,.32-5.57,5.07-6.11,7.7,0,.19-.29,3-.32,3.67-.94-1.8-1.86-3.62-2.7-5.44a64.64,64.64,0,0,1-2.93-7.56c.19,0,5.15-1.17,7-2.57,1.59-1.22,3.27-3.21,3.26-5.33a3.56,3.56,0,0,0-3.84-3.64c-3,.33-5.57,5.08-6.11,7.7,0,.21-.31,3.19-.32,3.73l-.16-.45a45.41,45.41,0,0,1-1.51-8c-.17-1.49-.25-2.92-.29-4.32.94-.12,5.26-.69,7-1.77s3.61-2.83,3.83-4.94a3.57,3.57,0,0,0-3.42-4c-3,0-6.09,4.44-6.92,7,0,.13-.34,1.59-.55,2.66,0-.63,0-1.28,0-1.89,0-2.26.15-4.34.29-6.18.09-1.05.19-2,.3-2.87.87-.6,4.34-3.05,5.4-4.8s1.9-4.17,1.12-6.14a3.55,3.55,0,0,0-4.89-2c-2.66,1.38-3.37,6.74-2.92,9.39,0,.22,1,3.73,1.09,3.7l0,0c-.12.85-.23,1.76-.34,2.75-.18,1.84-.37,3.92-.43,6.2a61.94,61.94,0,0,0,.18,7.36,46.41,46.41,0,0,0,1.36,8.11l0,.1c-.47-.74-1.86-2.77-2-2.92-1.76-2-6.33-4.91-9.1-3.73a3.54,3.54,0,0,0-1.57,5C75.75,351.19,78.19,352.1,80.17,352.39Z" style="fill:#263238"></path><path d="M131.62,338.3s1-3.5,1-3.73c.37-2.66-.47-8-3.17-9.31a3.56,3.56,0,0,0-4.84,2.14c-.72,2,.2,4.44,1.29,6.12C127.16,335.49,131.62,338.29,131.62,338.3Z" style="fill:#263238"></path></g><g id="freepik--Text--inject-2"><path d="M331.25,306.93V277.05h10.81v2.17h-8v11.22h6.5v2.07h-6.5v12.32h8.05v2.1Z" style="fill:#263238"></path><path d="M346,306.93V277.05h6.76a9,9,0,0,1,4.4.9,5.19,5.19,0,0,1,2.31,2.62,10.68,10.68,0,0,1,.7,4.08,12.66,12.66,0,0,1-.37,3.13,5.94,5.94,0,0,1-1.25,2.51,4.32,4.32,0,0,1-2.51,1.37l4.57,15.27h-2.73l-4.39-14.68h-4.68v14.68Zm2.81-16.75h3.8a5.61,5.61,0,0,0,2.91-.63,3.45,3.45,0,0,0,1.48-1.84,9.18,9.18,0,0,0,.44-3.06,7.2,7.2,0,0,0-1-4.13c-.64-.91-1.9-1.37-3.8-1.37h-3.87Z" style="fill:#263238"></path><path d="M364.86,306.93V277.05h6.75a9.06,9.06,0,0,1,4.41.9,5.19,5.19,0,0,1,2.31,2.62,10.68,10.68,0,0,1,.7,4.08,12.66,12.66,0,0,1-.37,3.13,5.94,5.94,0,0,1-1.25,2.51,4.32,4.32,0,0,1-2.51,1.37l4.57,15.27h-2.73l-4.39-14.68h-4.68v14.68Zm2.81-16.75h3.8a5.61,5.61,0,0,0,2.91-.63,3.45,3.45,0,0,0,1.48-1.84,9.18,9.18,0,0,0,.44-3.06,7.2,7.2,0,0,0-1-4.13c-.64-.91-1.91-1.37-3.8-1.37h-3.87Z" style="fill:#263238"></path><path d="M390.8,307.3a8.07,8.07,0,0,1-4.63-1.16,6.14,6.14,0,0,1-2.36-3.25,15.2,15.2,0,0,1-.68-4.78V285.72a14.06,14.06,0,0,1,.72-4.74,6,6,0,0,1,2.39-3.12,10,10,0,0,1,9.15,0,5.94,5.94,0,0,1,2.38,3.12,14.34,14.34,0,0,1,.7,4.74v12.43a15,15,0,0,1-.68,4.76,6.2,6.2,0,0,1-2.34,3.23A8.07,8.07,0,0,1,390.8,307.3Zm0-2.25a4.86,4.86,0,0,0,3-.79,4.05,4.05,0,0,0,1.43-2.22,12.91,12.91,0,0,0,.38-3.3V285.2a12.74,12.74,0,0,0-.38-3.28,3.83,3.83,0,0,0-1.43-2.16,5.07,5.07,0,0,0-3-.76,5.14,5.14,0,0,0-3,.76,3.79,3.79,0,0,0-1.44,2.16,12.74,12.74,0,0,0-.38,3.28v13.54a12.91,12.91,0,0,0,.38,3.3,4,4,0,0,0,1.44,2.22A4.93,4.93,0,0,0,390.8,305.05Z" style="fill:#263238"></path><path d="M403.12,306.93V277.05h6.75a9.06,9.06,0,0,1,4.41.9,5.19,5.19,0,0,1,2.31,2.62,10.88,10.88,0,0,1,.7,4.08,12.66,12.66,0,0,1-.37,3.13,6.06,6.06,0,0,1-1.25,2.51,4.35,4.35,0,0,1-2.51,1.37l4.57,15.27H415l-4.39-14.68h-4.68v14.68Zm2.81-16.75h3.8a5.61,5.61,0,0,0,2.91-.63,3.45,3.45,0,0,0,1.48-1.84,9.18,9.18,0,0,0,.44-3.06,7.2,7.2,0,0,0-1-4.13c-.64-.91-1.91-1.37-3.8-1.37h-3.87Z" style="fill:#263238"></path></g><g id="freepik--Number--inject-2"><path d="M324.24,256.78V237H300.13V225.2l21-49.11h16V226h8.26v11h-8.26v19.82ZM311.69,226h12.55V190.94Z" style="fill:#263238"></path><path d="M337.69,257.28H323.74V237.46H299.63l0-12.45,21.15-49.42h16.87V225.5H346v12h-8.27Zm-12.95-1h11.95V236.46H345v-10h-8.27V176.59H321.48l-20.85,48.72v11.15h24.11Zm0-29.78H311l13.76-38.44Zm-12.34-1h11.34V193.82Z" style="fill:#263238"></path><path d="M373.75,258A21.23,21.23,0,0,1,362,255a18.49,18.49,0,0,1-7-8.27,29.73,29.73,0,0,1-2.34-12.15V198.81A31.74,31.74,0,0,1,355,186.4a17.89,17.89,0,0,1,6.87-8.32q4.64-3,11.91-3t11.9,3a17.89,17.89,0,0,1,6.87,8.32,31.74,31.74,0,0,1,2.24,12.41v35.76a29.73,29.73,0,0,1-2.34,12.15,18.49,18.49,0,0,1-7,8.27A21.22,21.22,0,0,1,373.75,258Zm0-11.86a5.5,5.5,0,0,0,4.58-1.89,10.32,10.32,0,0,0,2-4.58,29.18,29.18,0,0,0,.5-5.28V199a34,34,0,0,0-.45-5.52,10,10,0,0,0-1.94-4.64,6.75,6.75,0,0,0-9.37,0,10,10,0,0,0-1.94,4.64,34,34,0,0,0-.45,5.52v35.37a26.1,26.1,0,0,0,.55,5.28,10.73,10.73,0,0,0,2,4.58A5.38,5.38,0,0,0,373.75,246.12Z" style="fill:#263238"></path><path d="M373.75,258.48a21.83,21.83,0,0,1-12-3.07,19,19,0,0,1-7.16-8.49,30.33,30.33,0,0,1-2.38-12.35V198.81a32.31,32.31,0,0,1,2.28-12.6,18.48,18.48,0,0,1,7.06-8.55c3.16-2,7.25-3.06,12.18-3.06s9,1,12.17,3.07a18.35,18.35,0,0,1,7.06,8.54,32.31,32.31,0,0,1,2.28,12.6v35.76a30.37,30.37,0,0,1-2.38,12.35,19,19,0,0,1-7.16,8.49A21.8,21.8,0,0,1,373.75,258.48Zm0-82.88c-4.73,0-8.65,1-11.64,2.9a17.51,17.51,0,0,0-6.68,8.1,31.46,31.46,0,0,0-2.2,12.21v35.76a29.28,29.28,0,0,0,2.3,12,18.09,18.09,0,0,0,6.78,8,23.92,23.92,0,0,0,22.87,0,18.18,18.18,0,0,0,6.79-8,29.45,29.45,0,0,0,2.29-12V198.81a31.46,31.46,0,0,0-2.2-12.21,17.45,17.45,0,0,0-6.68-8.1C382.39,176.58,378.47,175.6,373.75,175.6Zm0,71a5.86,5.86,0,0,1-4.88-2.08,11.29,11.29,0,0,1-2.14-4.79,27.09,27.09,0,0,1-.56-5.38V199a35.19,35.19,0,0,1,.46-5.61,10.52,10.52,0,0,1,2-4.86,7.23,7.23,0,0,1,10.15,0,10.51,10.51,0,0,1,2,4.87,33.85,33.85,0,0,1,.46,5.6v35.37a29.36,29.36,0,0,1-.51,5.37,10.76,10.76,0,0,1-2.09,4.8A6,6,0,0,1,373.75,246.62Zm0-59.17a5.09,5.09,0,0,0-4.29,1.7,9.41,9.41,0,0,0-1.84,4.41,33,33,0,0,0-.45,5.44v35.37a25.76,25.76,0,0,0,.54,5.18,10.28,10.28,0,0,0,2,4.37,4.83,4.83,0,0,0,4.09,1.7,5,5,0,0,0,4.19-1.7,9.89,9.89,0,0,0,1.89-4.36,29.17,29.17,0,0,0,.49-5.19V199a34.12,34.12,0,0,0-.44-5.44,9.52,9.52,0,0,0-1.85-4.41A5.08,5.08,0,0,0,373.75,187.45Z" style="fill:#263238"></path><path d="M427.64,256.78V237H403.53V225.2l21-49.11h16V226h8.26v11h-8.26v19.82ZM415.09,226h12.55V190.94Z" style="fill:#263238"></path><path d="M441.09,257.28H427.14V237.46H403l0-12.45,21.15-49.42h16.87V225.5h8.26v12h-8.26Zm-12.95-1h11.95V236.46h8.26v-10h-8.26V176.59H424.88L404,225.31v11.15h24.11Zm0-29.78H414.38l13.76-38.44Zm-12.34-1h11.34V193.82Z" style="fill:#263238"></path><path d="M324.24,249.85V230H300.13V218.28l21-49.12h16v49.91h8.26v11h-8.26v19.82Zm-12.55-30.78h12.55V184Z" style="fill:#92E3A9"></path><path d="M337.69,250.35H323.74V230.53H299.63l0-12.45,21.15-49.41h16.87v49.9H346v12h-8.27Zm-12.95-1h11.95V229.53H345v-10h-8.27v-49.9H321.48l-20.85,48.71v11.15h24.11Zm0-29.78H311l13.76-38.44Zm-12.34-1h11.34V186.89Z" style="fill:#263238"></path><path d="M373.75,251.05a21.23,21.23,0,0,1-11.71-3,18.49,18.49,0,0,1-7-8.27,29.73,29.73,0,0,1-2.34-12.15V191.88a31.66,31.66,0,0,1,2.24-12.4,17.79,17.79,0,0,1,6.87-8.32q4.64-3,11.91-3t11.9,3a17.79,17.79,0,0,1,6.87,8.32,31.66,31.66,0,0,1,2.24,12.4v35.76a29.73,29.73,0,0,1-2.34,12.15,18.49,18.49,0,0,1-7,8.27A21.22,21.22,0,0,1,373.75,251.05Zm0-11.86a5.5,5.5,0,0,0,4.58-1.89,10.32,10.32,0,0,0,2-4.58,29.1,29.1,0,0,0,.5-5.28V192.08a34.1,34.1,0,0,0-.45-5.53,10,10,0,0,0-1.94-4.63,6.73,6.73,0,0,0-9.37,0,10,10,0,0,0-1.94,4.63,34.1,34.1,0,0,0-.45,5.53v35.36a26,26,0,0,0,.55,5.28,10.73,10.73,0,0,0,2,4.58A5.38,5.38,0,0,0,373.75,239.19Z" style="fill:#92E3A9"></path><path d="M373.75,251.55a21.75,21.75,0,0,1-12-3.07,19.08,19.08,0,0,1-7.16-8.48,30.42,30.42,0,0,1-2.38-12.36V191.88a32.34,32.34,0,0,1,2.28-12.6,18.41,18.41,0,0,1,7.06-8.54c3.16-2,7.25-3.07,12.18-3.07s9,1,12.17,3.07a18.4,18.4,0,0,1,7.06,8.54,32.34,32.34,0,0,1,2.28,12.6v35.76A30.42,30.42,0,0,1,392.88,240a19.08,19.08,0,0,1-7.16,8.48A21.71,21.71,0,0,1,373.75,251.55Zm0-82.88c-4.73,0-8.65,1-11.64,2.91a17.48,17.48,0,0,0-6.68,8.09,31.46,31.46,0,0,0-2.2,12.21v35.76a29.28,29.28,0,0,0,2.3,12,18.09,18.09,0,0,0,6.78,8,23.92,23.92,0,0,0,22.87,0,18.18,18.18,0,0,0,6.79-8,29.45,29.45,0,0,0,2.29-12V191.88a31.46,31.46,0,0,0-2.2-12.21,17.42,17.42,0,0,0-6.68-8.09C382.39,169.65,378.47,168.67,373.75,168.67Zm0,71a5.86,5.86,0,0,1-4.88-2.08,11.29,11.29,0,0,1-2.14-4.79,26.94,26.94,0,0,1-.56-5.38V192.08a35,35,0,0,1,.46-5.61,10.47,10.47,0,0,1,2-4.86,7.21,7.21,0,0,1,10.15,0,10.47,10.47,0,0,1,2,4.86,33.88,33.88,0,0,1,.46,5.61v35.36a29.28,29.28,0,0,1-.51,5.37,10.76,10.76,0,0,1-2.09,4.8A6,6,0,0,1,373.75,239.69Zm0-59.17a5.07,5.07,0,0,0-4.29,1.71,9.42,9.42,0,0,0-1.84,4.4,33,33,0,0,0-.45,5.45v35.36a25.76,25.76,0,0,0,.54,5.18,10.18,10.18,0,0,0,2,4.37,4.83,4.83,0,0,0,4.09,1.7,5,5,0,0,0,4.19-1.7,9.89,9.89,0,0,0,1.89-4.36,29.09,29.09,0,0,0,.49-5.19V192.08a34.15,34.15,0,0,0-.44-5.45,9.53,9.53,0,0,0-1.85-4.4A5.06,5.06,0,0,0,373.75,180.52Z" style="fill:#263238"></path><path d="M427.64,249.85V230H403.53V218.28l21-49.12h16v49.91h8.26v11h-8.26v19.82Zm-12.55-30.78h12.55V184Z" style="fill:#92E3A9"></path><path d="M441.09,250.35H427.14V230.53H403l0-12.45,21.15-49.41h16.87v49.9h8.26v12h-8.26Zm-12.95-1h11.95V229.53h8.26v-10h-8.26v-49.9H424.88L404,218.38v11.15h24.11Zm0-29.78H414.38l13.76-38.44Zm-12.34-1h11.34V186.89Z" style="fill:#263238"></path></g><g id="freepik--Graphics--inject-2"><rect x="597.42" y="155.97" width="1" height="22.99" style="fill:#263238"></rect><rect x="586.42" y="166.96" width="22.99" height="1" style="fill:#263238"></rect><rect x="200.11" y="354.62" width="1" height="22.99" style="fill:#263238"></rect><rect x="189.11" y="365.61" width="22.99" height="1" style="fill:#263238"></rect><rect x="414.11" y="355.52" width="1" height="22.99" style="fill:#263238"></rect><rect x="403.12" y="366.52" width="22.99" height="1" style="fill:#263238"></rect><rect x="360.84" y="109.01" width="1" height="22.99" style="fill:#263238"></rect><rect x="349.84" y="120" width="22.99" height="1" style="fill:#263238"></rect><rect x="64.66" y="109.01" width="1" height="22.99" style="fill:#263238"></rect><rect x="53.67" y="120" width="22.99" height="1" style="fill:#263238"></rect><path d="M523.87,97.53a6.82,6.82,0,1,1,6.82-6.82A6.83,6.83,0,0,1,523.87,97.53Zm0-12.64a5.82,5.82,0,1,0,5.82,5.82A5.83,5.83,0,0,0,523.87,84.89Z" style="fill:#263238"></path><path d="M674.67,129.13a6.82,6.82,0,1,1,6.82-6.82A6.83,6.83,0,0,1,674.67,129.13Zm0-12.64a5.82,5.82,0,1,0,5.82,5.82A5.83,5.83,0,0,0,674.67,116.49Z" style="fill:#263238"></path><path d="M95.86,247.42a6.82,6.82,0,1,1,6.82-6.82A6.83,6.83,0,0,1,95.86,247.42Zm0-12.64a5.82,5.82,0,1,0,5.82,5.82A5.83,5.83,0,0,0,95.86,234.78Z" style="fill:#263238"></path><path d="M199.71,111.07a6.82,6.82,0,1,1,6.82-6.82A6.83,6.83,0,0,1,199.71,111.07Zm0-12.64a5.82,5.82,0,1,0,5.82,5.82A5.83,5.83,0,0,0,199.71,98.43Z" style="fill:#263238"></path><path d="M160,374.74a6.82,6.82,0,1,1,6.83-6.82A6.83,6.83,0,0,1,160,374.74Zm0-12.64a5.82,5.82,0,1,0,5.83,5.82A5.83,5.83,0,0,0,160,362.1Z" style="fill:#263238"></path><path d="M670.15,258.26a6.83,6.83,0,1,1,6.82-6.82A6.83,6.83,0,0,1,670.15,258.26Zm0-12.65a5.83,5.83,0,1,0,5.82,5.83A5.83,5.83,0,0,0,670.15,245.61Z" style="fill:#263238"></path></g></svg>